# xmcd
#
# Track frame offsets: 
#        150
#        15510
#        43200
#        56507
#        82152
#        100972
#        126075
#        146407
#        177715
#        198080
#
# Disc length: 3063 seconds
#
# Revision: 5
# Processed by: cddbd v1.5.2PL0 Copyright (c) Steve Scherf et al.
# Submitted via: ExactAudioCopy v1.0b3
#
DISCID=8a0bf50a
DTITLE=Long John Hunter - Ride With Me
DYEAR=1998
DGENRE=Blues
TTITLE0=Ride With Me
TTITLE1=Irene
TTITLE2=El Paso Rock
TTITLE3=Crazy Love
TTITLE4=Bad Feet
TTITLE5=I Raise My Hand
TTITLE6=Dream About The Devil
TTITLE7=West Texas Homecoming
TTITLE8=Tell Me
TTITLE9=Still Blue
EXTD=
EXTT0=
EXTT1=
EXTT2=
EXTT3=
EXTT4=
EXTT5=
EXTT6=
EXTT7=
EXTT8=
EXTT9=
PLAYORDER=
